<svg xmlns="http://www.w3.org/2000/svg" width="684" height="256" fill="none"><path fill="#121212" d="M233.646 87.242c-9.513-10.65-21.28-16.012-35.264-16.012-8.619 0-16.558 1.678-23.854 5.07s-13.591 7.988-18.92 13.86c-5.293 5.908-9.477 12.765-12.553 20.716-3.075 7.915-4.613 16.486-4.613 25.75 0 9.081 1.43 17.36 4.256 24.837 2.861 7.441 6.831 13.823 11.981 19.148q7.725 7.988 18.347 12.474t23.282 4.486c3.827 0 7.367-.292 10.586-.839a41.5 41.5 0 0 0 9.227-2.699c2.933-1.276 5.794-2.881 8.655-4.814 2.826-1.97 5.794-4.45 8.87-7.404v31.622h-.036v3.063h-39.054l-29.363 33.701V256h110.19V74.549h-41.737zm-.107 57.955c-1.467 3.355-3.398 6.309-5.758 8.826-2.397 2.517-5.222 4.45-8.512 5.872s-6.796 2.115-10.479 2.115c-3.863 0-7.439-.693-10.729-2.115-3.291-1.422-6.152-3.355-8.548-5.872s-4.256-5.471-5.651-8.826-2.074-7.04-2.074-10.942c0-3.757.715-7.295 2.181-10.577s3.398-6.128 5.902-8.571c2.467-2.444 5.293-4.377 8.511-5.872 3.219-1.496 6.688-2.225 10.372-2.225 3.541 0 6.938.693 10.264 2.115a26.35 26.35 0 0 1 8.655 5.872c2.468 2.517 4.399 5.398 5.901 8.681 1.467 3.282 2.182 6.893 2.182 10.832-.036 3.757-.751 7.331-2.217 10.687M117.199 89.212c-2.217-2.663-4.721-4.96-7.403-7.003-2.396-1.787-4.935-3.355-7.689-4.632-1.324-.62-2.718-1.13-4.185-1.605-2.11-.693-4.399-1.167-6.76-1.568H61.408l-19.67 22.868V74.878H0V195.53h41.737v-81.407h39.197l3.255-.073v81.443h41.737v-75.461q0-9.628-1.824-17.179c-1.216-4.996-3.505-9.519-6.903-13.64M398.124 74.55h-45.528l-18.097 20.789v-20.79h-41.772V195.2h41.844l.036-80.75h30.364l33.153-38.223zM623.657 130.28l57.08-53.688V74.55h-55.005l-43.776 43.511V0h-41.737v195.164h41.737v-49.128l45.886 49.128H684v-2.298zM507.6 88.3c-6.366-5.727-13.912-10.176-22.603-13.386S466.9 70.1 456.743 70.1c-10.3 0-19.813 1.641-28.468 4.924-8.691 3.282-16.166 7.805-22.496 13.495-6.294 5.726-11.23 12.473-14.771 20.242-3.54 7.768-5.293 16.121-5.293 25.056 0 9.884 1.753 18.857 5.293 26.917s8.405 14.99 14.664 20.789c6.223 5.799 13.626 10.286 22.245 13.422s17.989 4.705 28.147 4.705c10.3 0 19.849-1.568 28.718-4.705 8.834-3.136 16.416-7.55 22.71-13.312 6.295-5.726 11.266-12.547 14.878-20.461 3.613-7.915 5.437-16.632 5.437-26.224 0-9.556-1.789-18.309-5.294-26.224-3.576-7.878-8.547-14.698-14.913-20.424m-26.072 57.116c-1.467 3.355-3.398 6.309-5.758 8.826-2.397 2.516-5.222 4.45-8.512 5.872-3.326 1.422-6.795 2.115-10.479 2.115s-7.189-.693-10.515-2.115c-3.29-1.422-6.151-3.356-8.512-5.872-2.396-2.517-4.291-5.471-5.758-8.826s-2.181-7.076-2.181-11.161c0-3.757.715-7.295 2.181-10.577s3.362-6.164 5.758-8.68a25.05 25.05 0 0 1 8.512-5.873c3.326-1.422 6.795-2.115 10.515-2.115 3.684 0 7.188.693 10.479 2.115 3.29 1.386 6.151 3.356 8.512 5.873 2.396 2.516 4.291 5.47 5.758 8.826 1.466 3.355 2.181 6.93 2.181 10.686 0 3.903-.715 7.55-2.181 10.906"/></svg>